<?xml version="1.0" encoding="utf-8"?>
<svg viewBox="523.713 464.906 63.104 61" xmlns="http://www.w3.org/2000/svg">
  <path d="M 568.96 477.422 L 557.159 465.516 C 556.963 465.321 556.73 465.167 556.474 465.062 C 556.217 464.957 555.943 464.904 555.666 464.906 C 555.114 464.908 554.585 465.127 554.194 465.516 L 524.325 495.28 C 523.933 495.674 523.713 496.207 523.713 496.763 C 523.713 497.318 523.933 497.852 524.325 498.246 L 536.23 510.151 C 536.427 510.346 536.66 510.5 536.916 510.605 C 537.172 510.71 537.447 510.763 537.724 510.761 C 538.275 510.759 538.804 510.54 539.196 510.151 L 545.149 504.198 L 563.007 486.34 L 568.96 480.387 C 569.352 479.993 569.572 479.46 569.572 478.904 C 569.572 478.349 569.352 477.816 568.96 477.422 Z M 561.514 481.881 L 560.02 480.387 C 559.626 479.996 559.093 479.776 558.537 479.776 C 557.982 479.776 557.448 479.996 557.054 480.387 C 556.857 480.583 556.701 480.816 556.594 481.072 C 556.487 481.328 556.432 481.603 556.432 481.881 C 556.432 482.159 556.487 482.433 556.594 482.69 C 556.701 482.946 556.857 483.179 557.054 483.374 L 558.548 484.868 L 555.561 487.834 L 551.102 483.374 C 550.699 483.03 550.182 482.85 549.652 482.87 C 549.123 482.891 548.621 483.11 548.246 483.485 C 547.871 483.859 547.652 484.361 547.631 484.891 C 547.611 485.42 547.791 485.938 548.136 486.34 L 552.595 490.799 L 549.608 493.786 L 548.136 492.293 C 547.74 491.897 547.202 491.674 546.642 491.674 C 546.082 491.674 545.545 491.897 545.149 492.293 C 544.753 492.689 544.53 493.226 544.53 493.786 C 544.53 494.347 544.753 494.884 545.149 495.28 L 546.642 496.752 L 543.676 499.739 L 539.196 495.28 C 538.802 494.888 538.269 494.668 537.713 494.668 C 537.157 494.668 536.624 494.888 536.23 495.28 C 535.838 495.674 535.619 496.207 535.619 496.763 C 535.619 497.318 535.838 497.852 536.23 498.246 L 540.689 502.705 L 537.724 505.692 L 528.784 496.752 L 555.561 469.975 L 564.501 478.915 L 561.514 481.881 Z" fill="#FF3343"/>
  <path d="M 546.851 525.906 L 584.713 525.906 C 585.271 525.906 585.806 525.684 586.2 525.29 C 586.595 524.895 586.817 524.36 586.817 523.803 L 586.817 485.94 C 586.817 485.383 586.595 484.848 586.2 484.453 C 585.806 484.059 585.271 483.837 584.713 483.837 L 572.092 483.837 C 571.535 483.837 570.999 484.059 570.605 484.453 C 570.211 484.848 569.989 485.383 569.989 485.94 L 569.989 509.078 L 546.851 509.078 C 546.293 509.078 545.758 509.3 545.364 509.694 C 544.969 510.089 544.748 510.624 544.748 511.182 L 544.748 523.803 C 544.748 524.36 544.969 524.895 545.364 525.29 C 545.758 525.684 546.293 525.906 546.851 525.906 Z M 548.954 513.285 L 553.161 513.285 L 553.161 515.389 C 553.161 515.947 553.383 516.482 553.777 516.876 C 554.172 517.271 554.707 517.492 555.265 517.492 C 555.823 517.492 556.358 517.271 556.752 516.876 C 557.147 516.482 557.368 515.947 557.368 515.389 L 557.368 513.285 L 561.575 513.285 L 561.575 515.389 C 561.575 515.947 561.797 516.482 562.191 516.876 C 562.586 517.271 563.121 517.492 563.679 517.492 C 564.236 517.492 564.771 517.271 565.166 516.876 C 565.56 516.482 565.782 515.947 565.782 515.389 L 565.782 513.285 L 569.989 513.285 L 569.989 515.389 C 569.989 515.947 570.211 516.482 570.605 516.876 C 570.999 517.271 571.535 517.492 572.092 517.492 C 572.65 517.492 573.185 517.271 573.58 516.876 C 573.974 516.482 574.196 515.947 574.196 515.389 L 574.196 513.285 L 576.299 513.285 C 576.857 513.285 577.392 513.064 577.787 512.669 C 578.181 512.275 578.403 511.74 578.403 511.182 C 578.403 510.624 578.181 510.089 577.787 509.694 C 577.392 509.3 576.857 509.078 576.299 509.078 L 574.196 509.078 L 574.196 504.872 L 576.299 504.872 C 576.857 504.872 577.392 504.65 577.787 504.255 C 578.181 503.861 578.403 503.326 578.403 502.768 C 578.403 502.21 578.181 501.675 577.787 501.281 C 577.392 500.886 576.857 500.665 576.299 500.665 L 574.196 500.665 L 574.196 496.458 L 576.299 496.458 C 576.857 496.458 577.392 496.236 577.787 495.842 C 578.181 495.447 578.403 494.912 578.403 494.354 C 578.403 493.796 578.181 493.261 577.787 492.867 C 577.392 492.472 576.857 492.251 576.299 492.251 L 574.196 492.251 L 574.196 488.044 L 582.61 488.044 L 582.61 521.699 L 548.954 521.699 L 548.954 513.285 Z" fill="#FF3343"/>
</svg>