<?xml version="1.0" encoding="utf-8"?>
<svg viewBox="335.725 463.761 49 61" xmlns="http://www.w3.org/2000/svg">
  <path d="M 363.287 500.361 L 351.037 500.361 C 350.225 500.361 349.446 500.682 348.872 501.254 C 348.298 501.826 347.975 502.602 347.975 503.411 C 347.975 504.22 348.298 504.996 348.872 505.568 C 349.446 506.14 350.225 506.461 351.037 506.461 L 363.287 506.461 C 364.1 506.461 364.879 506.14 365.453 505.568 C 366.027 504.996 366.35 504.22 366.35 503.411 C 366.35 502.602 366.027 501.826 365.453 501.254 C 364.879 500.682 364.1 500.361 363.287 500.361 Z M 375.537 469.861 L 371.924 469.861 C 371.292 468.081 370.123 466.54 368.577 465.447 C 367.03 464.355 365.183 463.766 363.287 463.761 L 357.163 463.761 C 355.267 463.766 353.42 464.355 351.873 465.447 C 350.327 466.54 349.158 468.081 348.526 469.861 L 344.913 469.861 C 342.476 469.861 340.139 470.825 338.416 472.541 C 336.693 474.257 335.725 476.584 335.725 479.011 L 335.725 515.611 C 335.725 518.038 336.693 520.365 338.416 522.081 C 340.139 523.797 342.476 524.761 344.913 524.761 L 375.537 524.761 C 377.974 524.761 380.311 523.797 382.034 522.081 C 383.757 520.365 384.725 518.038 384.725 515.611 L 384.725 479.011 C 384.725 476.584 383.757 474.257 382.034 472.541 C 380.311 470.825 377.974 469.861 375.537 469.861 Z M 354.1 472.911 C 354.1 472.102 354.423 471.326 354.997 470.754 C 355.571 470.182 356.35 469.861 357.163 469.861 L 363.287 469.861 C 364.1 469.861 364.879 470.182 365.453 470.754 C 366.027 471.326 366.35 472.102 366.35 472.911 L 366.35 475.961 L 354.1 475.961 L 354.1 472.911 Z M 378.6 515.611 C 378.6 516.42 378.277 517.196 377.703 517.768 C 377.129 518.34 376.35 518.661 375.537 518.661 L 344.913 518.661 C 344.1 518.661 343.321 518.34 342.747 517.768 C 342.173 517.196 341.85 516.42 341.85 515.611 L 341.85 479.011 C 341.85 478.202 342.173 477.426 342.747 476.854 C 343.321 476.282 344.1 475.961 344.913 475.961 L 347.975 475.961 L 347.975 479.011 C 347.975 479.82 348.298 480.596 348.872 481.168 C 349.446 481.74 350.225 482.061 351.037 482.061 L 369.413 482.061 C 370.225 482.061 371.004 481.74 371.578 481.168 C 372.152 480.596 372.475 479.82 372.475 479.011 L 372.475 475.961 L 375.537 475.961 C 376.35 475.961 377.129 476.282 377.703 476.854 C 378.277 477.426 378.6 478.202 378.6 479.011 L 378.6 515.611 Z M 369.413 488.161 L 351.037 488.161 C 350.225 488.161 349.446 488.482 348.872 489.054 C 348.298 489.626 347.975 490.402 347.975 491.211 C 347.975 492.02 348.298 492.796 348.872 493.368 C 349.446 493.94 350.225 494.261 351.037 494.261 L 369.413 494.261 C 370.225 494.261 371.004 493.94 371.578 493.368 C 372.152 492.796 372.475 492.02 372.475 491.211 C 372.475 490.402 372.152 489.626 371.578 489.054 C 371.004 488.482 370.225 488.161 369.413 488.161 Z" style="fill: rgb(255, 255, 255);"/>
</svg>