<?xml version="1.0" encoding="utf-8"?>
<svg viewBox="690.323 487.194 162 20" xmlns="http://www.w3.org/2000/svg">
  <path d="M 697.065 507.194 L 697.065 498.071 L 700.127 498.071 L 700.585 494.516 L 697.065 494.516 L 697.065 492.246 C 697.065 491.216 697.35 490.515 698.827 490.515 L 700.709 490.514 L 700.709 487.334 C 699.798 487.238 698.882 487.191 697.966 487.194 C 695.252 487.194 693.393 488.851 693.393 491.894 L 693.393 494.516 L 690.323 494.516 L 690.323 498.071 L 693.393 498.071 L 693.393 507.194 L 697.065 507.194 Z" style="fill: rgb(255, 255, 255);"/>
  <path d="M 774.323 490.351 C 773.496 490.711 772.622 490.949 771.727 491.058 C 772.671 490.491 773.378 489.6 773.718 488.548 C 772.831 489.079 771.86 489.453 770.847 489.654 C 770.17 488.916 769.268 488.425 768.284 488.258 C 767.299 488.09 766.287 488.256 765.406 488.729 C 764.525 489.202 763.826 489.955 763.417 490.871 C 763.008 491.787 762.913 492.813 763.147 493.789 C 761.353 493.698 759.599 493.228 757.998 492.411 C 756.396 491.594 754.984 490.447 753.852 489.046 C 753.455 489.743 753.246 490.532 753.247 491.334 C 753.246 492.08 753.428 492.814 753.777 493.472 C 754.126 494.13 754.632 494.691 755.249 495.104 C 754.532 495.085 753.83 494.891 753.203 494.541 L 753.203 494.596 C 753.208 495.641 753.573 496.651 754.234 497.457 C 754.895 498.263 755.814 498.814 756.833 499.018 C 756.441 499.138 756.033 499.201 755.623 499.206 C 755.339 499.203 755.056 499.177 754.776 499.129 C 755.066 500.027 755.628 500.813 756.383 501.375 C 757.138 501.938 758.049 502.25 758.989 502.269 C 757.402 503.524 755.442 504.209 753.423 504.214 C 753.055 504.216 752.688 504.193 752.323 504.148 C 754.385 505.486 756.788 506.196 759.242 506.193 C 760.936 506.211 762.616 505.889 764.184 505.247 C 765.753 504.605 767.179 503.655 768.378 502.453 C 769.577 501.25 770.526 499.82 771.169 498.245 C 771.812 496.67 772.136 494.983 772.123 493.28 C 772.123 493.092 772.123 492.893 772.123 492.694 C 772.986 492.047 773.731 491.254 774.323 490.351 Z" style="fill: rgb(255, 255, 255);"/>
  <path d="M 852.317 494.538 C 852.375 492.872 852.006 491.219 851.242 489.732 C 850.724 489.122 850.005 488.71 849.211 488.568 C 845.924 488.275 842.625 488.154 839.325 488.208 C 836.038 488.152 832.75 488.268 829.475 488.557 C 828.828 488.673 828.228 488.972 827.751 489.418 C 826.688 490.384 826.57 492.036 826.452 493.432 C 826.28 495.943 826.28 498.462 826.452 500.973 C 826.486 501.759 826.604 502.539 826.806 503.3 C 826.948 503.888 827.236 504.431 827.644 504.882 C 828.125 505.352 828.739 505.668 829.404 505.79 C 831.95 506.1 834.516 506.228 837.081 506.174 C 841.215 506.232 844.841 506.174 849.128 505.848 C 849.81 505.734 850.441 505.417 850.935 504.941 C 851.266 504.615 851.513 504.216 851.656 503.777 C 852.078 502.5 852.285 501.164 852.27 499.821 C 852.317 499.169 852.317 495.236 852.317 494.538 Z M 836.656 500.519 L 836.656 493.316 L 843.648 496.935 C 841.687 498.005 839.101 499.216 836.656 500.519 Z" style="fill: rgb(255, 255, 255);"/>
</svg>