<?xml version="1.0" encoding="utf-8"?>
<svg viewBox="69.564 458.753 65 70.967" xmlns="http://www.w3.org/2000/svg">
  <path d="M 117.694 501.13 C 117.56 501.274 117.441 501.432 117.339 501.601 C 117.222 501.751 117.132 501.92 117.073 502.101 C 116.983 502.277 116.923 502.466 116.896 502.661 C 116.776 503.225 116.838 503.812 117.073 504.339 C 117.206 504.704 117.417 505.036 117.693 505.311 C 117.969 505.586 118.302 505.797 118.669 505.929 C 119.019 506.094 119.404 506.175 119.791 506.165 C 120.175 506.169 120.557 506.099 120.914 505.958 C 121.267 505.788 121.595 505.57 121.889 505.311 C 122.163 505.036 122.379 504.709 122.527 504.351 C 122.674 503.992 122.748 503.608 122.746 503.22 C 122.756 502.834 122.675 502.451 122.509 502.101 C 122.36 501.744 122.15 501.416 121.889 501.13 C 121.613 500.857 121.286 500.641 120.926 500.494 C 120.566 500.348 120.18 500.273 119.791 500.276 C 119.405 500.28 119.024 500.36 118.669 500.511 C 118.306 500.651 117.975 500.862 117.694 501.13 Z M 105.521 513.378 C 105.404 513.529 105.314 513.698 105.255 513.879 C 105.144 514.051 105.064 514.24 105.019 514.438 C 104.93 514.816 104.93 515.209 105.019 515.587 L 105.196 516.117 L 105.462 516.647 L 105.816 517.088 C 106.397 517.64 107.17 517.947 107.973 517.942 C 108.362 517.945 108.747 517.87 109.107 517.724 C 109.467 517.577 109.795 517.361 110.071 517.088 C 110.332 516.802 110.542 516.474 110.691 516.117 C 110.875 515.671 110.946 515.186 110.898 514.707 C 110.851 514.227 110.685 513.766 110.417 513.365 C 110.148 512.963 109.785 512.634 109.359 512.405 C 108.933 512.177 108.457 512.056 107.973 512.053 C 107.191 512.064 106.442 512.369 105.875 512.907 L 105.521 513.378 Z M 117.694 512.907 C 117.425 513.187 117.214 513.518 117.073 513.879 C 116.825 514.412 116.743 515.007 116.837 515.587 L 117.014 516.117 C 117.079 516.304 117.168 516.483 117.28 516.647 C 117.389 516.801 117.507 516.949 117.634 517.088 C 117.915 517.357 118.247 517.567 118.609 517.707 C 118.963 517.863 119.346 517.943 119.732 517.943 C 120.119 517.943 120.501 517.863 120.855 517.707 C 121.213 517.558 121.543 517.349 121.83 517.088 C 122.114 516.818 122.342 516.494 122.499 516.135 C 122.657 515.776 122.74 515.39 122.746 514.998 C 122.756 514.612 122.675 514.228 122.509 513.879 C 122.36 513.522 122.15 513.194 121.889 512.907 C 121.602 512.647 121.272 512.438 120.914 512.289 C 120.56 512.133 120.178 512.053 119.791 512.053 C 119.405 512.053 119.022 512.133 118.669 512.289 C 118.306 512.429 117.975 512.639 117.694 512.907 Z M 105.255 504.339 C 105.396 504.7 105.606 505.031 105.875 505.311 C 106.442 505.849 107.191 506.154 107.973 506.165 C 108.457 506.162 108.933 506.041 109.359 505.813 C 109.785 505.584 110.148 505.255 110.417 504.853 C 110.685 504.452 110.851 503.991 110.898 503.512 C 110.946 503.032 110.875 502.547 110.691 502.101 C 110.542 501.744 110.332 501.416 110.071 501.13 C 109.795 500.857 109.467 500.641 109.107 500.494 C 108.747 500.348 108.362 500.273 107.973 500.276 C 107.191 500.287 106.442 500.592 105.875 501.13 C 105.465 501.544 105.188 502.069 105.077 502.641 C 104.967 503.212 105.029 503.803 105.255 504.339 Z M 117.694 489.352 C 117.433 489.638 117.223 489.967 117.073 490.323 C 116.847 490.86 116.785 491.451 116.895 492.022 C 117.006 492.593 117.284 493.119 117.694 493.533 C 117.975 493.801 118.306 494.011 118.669 494.151 C 119.022 494.307 119.405 494.388 119.791 494.388 C 120.178 494.388 120.56 494.307 120.914 494.151 C 121.272 494.002 121.602 493.793 121.889 493.533 C 122.163 493.258 122.379 492.932 122.527 492.573 C 122.674 492.214 122.748 491.83 122.746 491.442 C 122.756 491.056 122.675 490.673 122.509 490.323 C 122.36 489.967 122.15 489.638 121.889 489.352 C 121.474 488.943 120.946 488.667 120.373 488.556 C 119.8 488.446 119.207 488.508 118.669 488.733 C 118.306 488.874 117.975 489.084 117.694 489.352 Z M 81.382 491.442 L 81.382 514.998 C 81.382 515.779 81.693 516.528 82.247 517.08 C 82.801 517.632 83.553 517.942 84.336 517.942 L 96.155 517.942 C 96.939 517.942 97.69 517.632 98.244 517.08 C 98.798 516.528 99.109 515.779 99.109 514.998 L 99.109 491.442 C 99.109 490.661 98.798 489.913 98.244 489.36 C 97.69 488.808 96.939 488.498 96.155 488.498 L 84.336 488.498 C 83.553 488.498 82.801 488.808 82.247 489.36 C 81.693 489.913 81.382 490.661 81.382 491.442 Z M 93.2 494.387 L 93.2 512.053 L 87.291 512.053 L 87.291 494.387 L 93.2 494.387 Z M 69.564 485.553 L 69.564 520.887 C 69.564 523.23 70.498 525.476 72.16 527.133 C 73.822 528.79 76.077 529.72 78.427 529.72 L 125.7 529.72 C 128.051 529.72 130.306 528.79 131.968 527.133 C 133.63 525.476 134.564 523.23 134.564 520.887 L 134.564 485.553 C 134.564 483.211 133.63 480.964 131.968 479.307 C 130.306 477.651 128.051 476.72 125.7 476.72 L 78.427 476.72 C 76.077 476.72 73.822 477.651 72.16 479.307 C 70.498 480.964 69.564 483.211 69.564 485.553 Z M 125.7 482.609 C 126.484 482.609 127.235 482.919 127.79 483.471 C 128.344 484.024 128.655 484.773 128.655 485.553 L 128.655 520.887 C 128.655 521.668 128.344 522.417 127.79 522.969 C 127.235 523.521 126.484 523.831 125.7 523.831 L 78.427 523.831 C 77.644 523.831 76.892 523.521 76.338 522.969 C 75.784 522.417 75.473 521.668 75.473 520.887 L 75.473 485.553 C 75.473 484.773 75.784 484.024 76.338 483.471 C 76.892 482.919 77.644 482.609 78.427 482.609 L 125.7 482.609 Z M 105.521 489.823 C 105.404 489.973 105.314 490.143 105.255 490.323 C 105.165 490.499 105.105 490.688 105.078 490.883 C 104.989 491.261 104.989 491.654 105.078 492.031 L 105.255 492.561 L 105.521 493.091 L 105.875 493.533 C 106.442 494.071 107.191 494.376 107.973 494.387 C 108.457 494.384 108.933 494.264 109.359 494.035 C 109.785 493.806 110.148 493.477 110.417 493.076 C 110.685 492.674 110.851 492.214 110.898 491.734 C 110.946 491.254 110.875 490.77 110.691 490.323 C 110.542 489.967 110.332 489.638 110.071 489.352 C 109.795 489.079 109.467 488.863 109.107 488.717 C 108.747 488.57 108.362 488.496 107.973 488.498 C 107.191 488.509 106.442 488.814 105.875 489.352 L 105.521 489.823 Z" fill="#FF3343"/>
  <path d="M 81.083 459.783 C 80.926 459.943 80.802 460.132 80.718 460.34 C 80.634 460.547 80.592 460.769 80.594 460.993 L 80.732 471.198 C 80.736 471.422 80.784 471.643 80.874 471.848 C 80.963 472.054 81.093 472.239 81.254 472.394 C 81.414 472.552 81.603 472.676 81.81 472.76 C 82.018 472.844 82.24 472.886 82.464 472.884 L 89.275 472.791 L 115.581 472.434 C 115.805 472.431 116.026 472.382 116.231 472.293 C 116.436 472.203 116.622 472.074 116.777 471.913 L 121.81 466.741 C 122.125 466.418 122.299 465.983 122.293 465.531 C 122.286 465.08 122.101 464.649 121.778 464.335 L 116.606 459.302 C 116.445 459.126 116.248 458.987 116.029 458.892 C 115.81 458.798 115.574 458.75 115.335 458.753 L 89.103 459.181 L 82.339 459.201 C 82.113 459.21 81.889 459.258 81.679 459.342 C 81.572 459.428 81.477 459.526 81.394 459.635 C 81.333 459.686 81.277 459.743 81.228 459.805 L 81.083 459.783 Z M 114.732 462.228 L 118.184 465.587 L 114.825 469.039 L 90.926 469.363 L 90.833 462.552 L 114.732 462.228 Z M 87.44 462.598 L 87.532 469.409 L 84.127 469.443 L 84.035 462.656 L 87.44 462.598 Z" fill="#FF3343"/>
</svg>